<mxfile host="65bd71144e" modified="2021-10-29T04:22:36.321Z" agent="5.0 (Windows NT 10.0; Win64; x64) AppleWebKit/537.36 (KHTML, like Gecko) Code/1.61.2 Chrome/91.0.4472.164 Electron/13.5.1 Safari/537.36" version="15.6.2" etag="i_S8XF1h8boMgRIFNczl" type="embed" pages="5">
    <diagram id="Hv5B-8PwK2G4hIcCYNjr" name="*従業員情報管理_登録">
        <mxGraphModel dx="1604" dy="430" grid="1" gridSize="10" guides="1" tooltips="1" connect="1" arrows="1" fold="1" page="1" pageScale="1" pageWidth="827" pageHeight="1169" math="0" shadow="0">
            <root>
                <mxCell id="0"/>
                <mxCell id="1" parent="0"/>
                <mxCell id="2" value="ログイン済&lt;br&gt;ホーム画面" style="shape=umlBoundary;whiteSpace=wrap;html=1;fillColor=#dae8fc;strokeColor=#6c8ebf;" vertex="1" parent="1">
                    <mxGeometry x="120" y="40" width="100" height="80" as="geometry"/>
                </mxCell>
                <mxCell id="3" value="従業員情報&lt;br&gt;一覧画面" style="shape=umlBoundary;whiteSpace=wrap;html=1;fillColor=#dae8fc;strokeColor=#6c8ebf;" vertex="1" parent="1">
                    <mxGeometry x="120" y="160" width="100" height="80" as="geometry"/>
                </mxCell>
                <mxCell id="4" value="従業員情報&lt;br&gt;を取得する" style="ellipse;shape=umlControl;whiteSpace=wrap;html=1;fillColor=#f8cecc;strokeColor=#b85450;" vertex="1" parent="1">
                    <mxGeometry x="420" y="40" width="70" height="80" as="geometry"/>
                </mxCell>
                <mxCell id="5" value="" style="endArrow=classic;html=1;rounded=0;exitX=1;exitY=0.5;exitDx=0;exitDy=0;exitPerimeter=0;entryX=-0.019;entryY=0.489;entryDx=0;entryDy=0;entryPerimeter=0;" edge="1" parent="1" source="2" target="4">
                    <mxGeometry width="50" height="50" relative="1" as="geometry">
                        <mxPoint x="240" y="80" as="sourcePoint"/>
                        <mxPoint x="400" y="80" as="targetPoint"/>
                    </mxGeometry>
                </mxCell>
                <mxCell id="6" value="「従業員情報（マスタ）」&lt;br&gt;を押下" style="text;html=1;strokeColor=none;fillColor=none;align=center;verticalAlign=middle;whiteSpace=wrap;rounded=0;" vertex="1" parent="1">
                    <mxGeometry x="230" y="40" width="160" height="30" as="geometry"/>
                </mxCell>
                <mxCell id="7" value="管理者&lt;br&gt;正規社員" style="shape=umlActor;verticalLabelPosition=bottom;verticalAlign=top;html=1;" vertex="1" parent="1">
                    <mxGeometry x="-40" y="170" width="30" height="60" as="geometry"/>
                </mxCell>
                <mxCell id="8" value="新規登録&lt;br&gt;画面" style="shape=umlBoundary;whiteSpace=wrap;html=1;fillColor=#dae8fc;strokeColor=#6c8ebf;" vertex="1" parent="1">
                    <mxGeometry x="120" y="280" width="100" height="80" as="geometry"/>
                </mxCell>
                <mxCell id="9" value="従業員情報" style="ellipse;shape=umlEntity;whiteSpace=wrap;html=1;fillColor=#d5e8d4;strokeColor=#82b366;" vertex="1" parent="1">
                    <mxGeometry x="710" y="160" width="80" height="80" as="geometry"/>
                </mxCell>
                <mxCell id="10" value="" style="endArrow=classic;html=1;rounded=0;exitX=1;exitY=0.5;exitDx=0;exitDy=0;exitPerimeter=0;startArrow=classic;startFill=1;" edge="1" parent="1">
                    <mxGeometry width="50" height="50" relative="1" as="geometry">
                        <mxPoint x="511.3299999999999" y="79.88" as="sourcePoint"/>
                        <mxPoint x="690" y="200" as="targetPoint"/>
                    </mxGeometry>
                </mxCell>
                <mxCell id="11" value="" style="endArrow=none;html=1;rounded=0;startArrow=classic;startFill=1;endFill=0;" edge="1" parent="1">
                    <mxGeometry width="50" height="50" relative="1" as="geometry">
                        <mxPoint x="230" y="200" as="sourcePoint"/>
                        <mxPoint x="410" y="90" as="targetPoint"/>
                    </mxGeometry>
                </mxCell>
                <mxCell id="12" value="表示する" style="ellipse;shape=umlControl;whiteSpace=wrap;html=1;fillColor=#f8cecc;strokeColor=#b85450;" vertex="1" parent="1">
                    <mxGeometry x="420" y="200" width="70" height="80" as="geometry"/>
                </mxCell>
                <mxCell id="13" value="" style="endArrow=none;html=1;rounded=0;startArrow=classic;startFill=1;endFill=0;" edge="1" parent="1">
                    <mxGeometry width="50" height="50" relative="1" as="geometry">
                        <mxPoint x="410" y="240" as="sourcePoint"/>
                        <mxPoint x="240" y="200" as="targetPoint"/>
                    </mxGeometry>
                </mxCell>
                <mxCell id="14" value="" style="endArrow=none;html=1;rounded=0;startArrow=classic;startFill=1;endFill=0;" edge="1" parent="1">
                    <mxGeometry width="50" height="50" relative="1" as="geometry">
                        <mxPoint x="240" y="320" as="sourcePoint"/>
                        <mxPoint x="410" y="250" as="targetPoint"/>
                    </mxGeometry>
                </mxCell>
                <mxCell id="15" value="入力データ検証" style="ellipse;shape=umlControl;whiteSpace=wrap;html=1;fillColor=#f8cecc;strokeColor=#b85450;" vertex="1" parent="1">
                    <mxGeometry x="420" y="360" width="70" height="80" as="geometry"/>
                </mxCell>
                <mxCell id="16" value="" style="endArrow=classic;html=1;rounded=0;startArrow=classic;startFill=1;endFill=1;" edge="1" parent="1">
                    <mxGeometry width="50" height="50" relative="1" as="geometry">
                        <mxPoint x="400" y="400" as="sourcePoint"/>
                        <mxPoint x="240" y="330" as="targetPoint"/>
                    </mxGeometry>
                </mxCell>
                <mxCell id="17" value="登録する" style="ellipse;shape=umlControl;whiteSpace=wrap;html=1;fillColor=#f8cecc;strokeColor=#b85450;" vertex="1" parent="1">
                    <mxGeometry x="420" y="520" width="70" height="80" as="geometry"/>
                </mxCell>
                <mxCell id="18" value="" style="endArrow=none;html=1;rounded=0;startArrow=classic;startFill=1;endFill=0;" edge="1" parent="1" source="17">
                    <mxGeometry width="50" height="50" relative="1" as="geometry">
                        <mxPoint x="410" y="410" as="sourcePoint"/>
                        <mxPoint x="455" y="450" as="targetPoint"/>
                    </mxGeometry>
                </mxCell>
                <mxCell id="19" value="" style="endArrow=none;html=1;rounded=0;startArrow=classic;startFill=1;endFill=0;" edge="1" parent="1">
                    <mxGeometry width="50" height="50" relative="1" as="geometry">
                        <mxPoint x="690" y="210" as="sourcePoint"/>
                        <mxPoint x="500" y="560" as="targetPoint"/>
                    </mxGeometry>
                </mxCell>
                <mxCell id="20" value="データ入力" style="text;html=1;strokeColor=none;fillColor=none;align=center;verticalAlign=middle;whiteSpace=wrap;rounded=0;" vertex="1" parent="1">
                    <mxGeometry x="290" y="350" width="160" height="30" as="geometry"/>
                </mxCell>
                <mxCell id="21" value="「新規登録」&lt;br&gt;を押下" style="text;html=1;strokeColor=none;fillColor=none;align=center;verticalAlign=middle;whiteSpace=wrap;rounded=0;" vertex="1" parent="1">
                    <mxGeometry x="270" y="185" width="160" height="30" as="geometry"/>
                </mxCell>
                <mxCell id="22" value="入力エラー時は&lt;br&gt;エラーメッセージを表示" style="text;html=1;strokeColor=none;fillColor=none;align=center;verticalAlign=middle;whiteSpace=wrap;rounded=0;" vertex="1" parent="1">
                    <mxGeometry x="280" y="410" width="160" height="30" as="geometry"/>
                </mxCell>
                <mxCell id="23" value="登録完了画面" style="shape=umlBoundary;whiteSpace=wrap;html=1;fillColor=#dae8fc;strokeColor=#6c8ebf;" vertex="1" parent="1">
                    <mxGeometry x="120" y="480" width="100" height="80" as="geometry"/>
                </mxCell>
                <mxCell id="24" value="" style="endArrow=none;html=1;rounded=0;startArrow=classic;startFill=1;endFill=0;jumpStyle=arc;" edge="1" parent="1">
                    <mxGeometry width="50" height="50" relative="1" as="geometry">
                        <mxPoint x="240" y="520" as="sourcePoint"/>
                        <mxPoint x="440" y="130" as="targetPoint"/>
                    </mxGeometry>
                </mxCell>
                <mxCell id="25" value="" style="endArrow=classic;html=1;rounded=0;" edge="1" parent="1">
                    <mxGeometry width="50" height="50" relative="1" as="geometry">
                        <mxPoint y="200" as="sourcePoint"/>
                        <mxPoint x="110" y="80" as="targetPoint"/>
                    </mxGeometry>
                </mxCell>
                <mxCell id="26" value="" style="endArrow=classic;html=1;rounded=0;" edge="1" parent="1">
                    <mxGeometry width="50" height="50" relative="1" as="geometry">
                        <mxPoint y="200" as="sourcePoint"/>
                        <mxPoint x="110" y="200" as="targetPoint"/>
                    </mxGeometry>
                </mxCell>
                <mxCell id="27" value="" style="endArrow=classic;html=1;rounded=0;" edge="1" parent="1">
                    <mxGeometry width="50" height="50" relative="1" as="geometry">
                        <mxPoint y="200" as="sourcePoint"/>
                        <mxPoint x="110" y="320" as="targetPoint"/>
                    </mxGeometry>
                </mxCell>
                <mxCell id="28" value="" style="endArrow=classic;html=1;rounded=0;" edge="1" parent="1">
                    <mxGeometry width="50" height="50" relative="1" as="geometry">
                        <mxPoint y="200" as="sourcePoint"/>
                        <mxPoint x="110" y="520" as="targetPoint"/>
                    </mxGeometry>
                </mxCell>
            </root>
        </mxGraphModel>
    </diagram>
    <diagram id="1LEc2-5TT9iGUVNX-sWB" name="*従業員情報管理_参照">
        <mxGraphModel dx="1937" dy="614" grid="1" gridSize="10" guides="1" tooltips="1" connect="1" arrows="1" fold="1" page="1" pageScale="1" pageWidth="827" pageHeight="1169" math="0" shadow="0">
            <root>
                <mxCell id="teE-KG6T1Xzd7_iqs4cO-0"/>
                <mxCell id="teE-KG6T1Xzd7_iqs4cO-1" parent="teE-KG6T1Xzd7_iqs4cO-0"/>
                <mxCell id="teE-KG6T1Xzd7_iqs4cO-2" value="管理者&lt;br&gt;正規社員" style="shape=umlActor;verticalLabelPosition=bottom;verticalAlign=top;html=1;" vertex="1" parent="teE-KG6T1Xzd7_iqs4cO-1">
                    <mxGeometry x="-70" y="160" width="30" height="60" as="geometry"/>
                </mxCell>
                <mxCell id="teE-KG6T1Xzd7_iqs4cO-3" value="ログイン済&lt;br&gt;ホーム画面" style="shape=umlBoundary;whiteSpace=wrap;html=1;fillColor=#dae8fc;strokeColor=#6c8ebf;" vertex="1" parent="teE-KG6T1Xzd7_iqs4cO-1">
                    <mxGeometry x="120" y="40" width="100" height="80" as="geometry"/>
                </mxCell>
                <mxCell id="teE-KG6T1Xzd7_iqs4cO-4" value="従業員情報&lt;br&gt;一覧画面" style="shape=umlBoundary;whiteSpace=wrap;html=1;fillColor=#dae8fc;strokeColor=#6c8ebf;" vertex="1" parent="teE-KG6T1Xzd7_iqs4cO-1">
                    <mxGeometry x="120" y="160" width="100" height="80" as="geometry"/>
                </mxCell>
                <mxCell id="teE-KG6T1Xzd7_iqs4cO-5" value="従業員情報&lt;br&gt;を取得する" style="ellipse;shape=umlControl;whiteSpace=wrap;html=1;fillColor=#f8cecc;strokeColor=#b85450;" vertex="1" parent="teE-KG6T1Xzd7_iqs4cO-1">
                    <mxGeometry x="420" y="40" width="70" height="80" as="geometry"/>
                </mxCell>
                <mxCell id="teE-KG6T1Xzd7_iqs4cO-6" value="従業員情報" style="ellipse;shape=umlEntity;whiteSpace=wrap;html=1;fillColor=#d5e8d4;strokeColor=#82b366;" vertex="1" parent="teE-KG6T1Xzd7_iqs4cO-1">
                    <mxGeometry x="640" y="120" width="80" height="80" as="geometry"/>
                </mxCell>
                <mxCell id="teE-KG6T1Xzd7_iqs4cO-7" value="表示する" style="ellipse;shape=umlControl;whiteSpace=wrap;html=1;fillColor=#f8cecc;strokeColor=#b85450;" vertex="1" parent="teE-KG6T1Xzd7_iqs4cO-1">
                    <mxGeometry x="420" y="210" width="70" height="80" as="geometry"/>
                </mxCell>
                <mxCell id="teE-KG6T1Xzd7_iqs4cO-8" value="詳細画面" style="shape=umlBoundary;whiteSpace=wrap;html=1;fillColor=#dae8fc;strokeColor=#6c8ebf;" vertex="1" parent="teE-KG6T1Xzd7_iqs4cO-1">
                    <mxGeometry x="120" y="280" width="100" height="80" as="geometry"/>
                </mxCell>
                <mxCell id="teE-KG6T1Xzd7_iqs4cO-9" value="" style="endArrow=classic;html=1;rounded=0;exitX=1;exitY=0.5;exitDx=0;exitDy=0;exitPerimeter=0;entryX=-0.019;entryY=0.489;entryDx=0;entryDy=0;entryPerimeter=0;" edge="1" parent="teE-KG6T1Xzd7_iqs4cO-1" source="teE-KG6T1Xzd7_iqs4cO-3" target="teE-KG6T1Xzd7_iqs4cO-5">
                    <mxGeometry width="50" height="50" relative="1" as="geometry">
                        <mxPoint x="240" y="80" as="sourcePoint"/>
                        <mxPoint x="400" y="80" as="targetPoint"/>
                    </mxGeometry>
                </mxCell>
                <mxCell id="teE-KG6T1Xzd7_iqs4cO-10" value="「従業員情報（マスタ）」&lt;br&gt;を押下" style="text;html=1;strokeColor=none;fillColor=none;align=center;verticalAlign=middle;whiteSpace=wrap;rounded=0;" vertex="1" parent="teE-KG6T1Xzd7_iqs4cO-1">
                    <mxGeometry x="230" y="40" width="160" height="30" as="geometry"/>
                </mxCell>
                <mxCell id="teE-KG6T1Xzd7_iqs4cO-11" value="" style="endArrow=classic;html=1;rounded=0;" edge="1" parent="teE-KG6T1Xzd7_iqs4cO-1">
                    <mxGeometry width="50" height="50" relative="1" as="geometry">
                        <mxPoint x="410" y="90" as="sourcePoint"/>
                        <mxPoint x="240" y="200" as="targetPoint"/>
                    </mxGeometry>
                </mxCell>
                <mxCell id="teE-KG6T1Xzd7_iqs4cO-12" value="" style="endArrow=classic;html=1;rounded=0;" edge="1" parent="teE-KG6T1Xzd7_iqs4cO-1">
                    <mxGeometry width="50" height="50" relative="1" as="geometry">
                        <mxPoint x="240" y="210" as="sourcePoint"/>
                        <mxPoint x="410" y="260" as="targetPoint"/>
                    </mxGeometry>
                </mxCell>
                <mxCell id="teE-KG6T1Xzd7_iqs4cO-13" value="" style="endArrow=classic;html=1;rounded=0;" edge="1" parent="teE-KG6T1Xzd7_iqs4cO-1">
                    <mxGeometry width="50" height="50" relative="1" as="geometry">
                        <mxPoint x="400" y="270" as="sourcePoint"/>
                        <mxPoint x="240" y="320" as="targetPoint"/>
                    </mxGeometry>
                </mxCell>
                <mxCell id="teE-KG6T1Xzd7_iqs4cO-14" value="" style="endArrow=classic;html=1;rounded=0;startArrow=classic;startFill=1;" edge="1" parent="teE-KG6T1Xzd7_iqs4cO-1">
                    <mxGeometry width="50" height="50" relative="1" as="geometry">
                        <mxPoint x="500" y="80" as="sourcePoint"/>
                        <mxPoint x="620" y="160" as="targetPoint"/>
                    </mxGeometry>
                </mxCell>
                <mxCell id="teE-KG6T1Xzd7_iqs4cO-15" value="" style="endArrow=classic;html=1;rounded=0;" edge="1" parent="teE-KG6T1Xzd7_iqs4cO-1">
                    <mxGeometry width="50" height="50" relative="1" as="geometry">
                        <mxPoint x="-30" y="200" as="sourcePoint"/>
                        <mxPoint x="110" y="80" as="targetPoint"/>
                    </mxGeometry>
                </mxCell>
                <mxCell id="teE-KG6T1Xzd7_iqs4cO-16" value="" style="endArrow=classic;html=1;rounded=0;" edge="1" parent="teE-KG6T1Xzd7_iqs4cO-1">
                    <mxGeometry width="50" height="50" relative="1" as="geometry">
                        <mxPoint x="-30" y="200" as="sourcePoint"/>
                        <mxPoint x="110" y="200" as="targetPoint"/>
                    </mxGeometry>
                </mxCell>
                <mxCell id="teE-KG6T1Xzd7_iqs4cO-17" value="" style="endArrow=classic;html=1;rounded=0;" edge="1" parent="teE-KG6T1Xzd7_iqs4cO-1">
                    <mxGeometry width="50" height="50" relative="1" as="geometry">
                        <mxPoint x="-30" y="200" as="sourcePoint"/>
                        <mxPoint x="110" y="320" as="targetPoint"/>
                    </mxGeometry>
                </mxCell>
            </root>
        </mxGraphModel>
    </diagram>
    <diagram id="OLmLsMBLRtIgLy6cQK2p" name="*従業員情報管理_編集">
        <mxGraphModel dx="1604" dy="430" grid="1" gridSize="10" guides="1" tooltips="1" connect="1" arrows="1" fold="1" page="1" pageScale="1" pageWidth="827" pageHeight="1169" math="0" shadow="0">
            <root>
                <mxCell id="M7JWOXm7xKOBKCvq_NVv-0"/>
                <mxCell id="M7JWOXm7xKOBKCvq_NVv-1" parent="M7JWOXm7xKOBKCvq_NVv-0"/>
                <mxCell id="M7JWOXm7xKOBKCvq_NVv-2" value="管理者&lt;br&gt;正規社員" style="shape=umlActor;verticalLabelPosition=bottom;verticalAlign=top;html=1;" vertex="1" parent="M7JWOXm7xKOBKCvq_NVv-1">
                    <mxGeometry x="-70" y="160" width="30" height="60" as="geometry"/>
                </mxCell>
                <mxCell id="M7JWOXm7xKOBKCvq_NVv-3" value="ログイン済&lt;br&gt;ホーム画面" style="shape=umlBoundary;whiteSpace=wrap;html=1;fillColor=#dae8fc;strokeColor=#6c8ebf;" vertex="1" parent="M7JWOXm7xKOBKCvq_NVv-1">
                    <mxGeometry x="120" y="40" width="100" height="80" as="geometry"/>
                </mxCell>
                <mxCell id="M7JWOXm7xKOBKCvq_NVv-4" value="従業員情報&lt;br&gt;一覧画面" style="shape=umlBoundary;whiteSpace=wrap;html=1;fillColor=#dae8fc;strokeColor=#6c8ebf;" vertex="1" parent="M7JWOXm7xKOBKCvq_NVv-1">
                    <mxGeometry x="120" y="160" width="100" height="80" as="geometry"/>
                </mxCell>
                <mxCell id="M7JWOXm7xKOBKCvq_NVv-5" value="従業員情報&lt;br&gt;を取得する" style="ellipse;shape=umlControl;whiteSpace=wrap;html=1;fillColor=#f8cecc;strokeColor=#b85450;" vertex="1" parent="M7JWOXm7xKOBKCvq_NVv-1">
                    <mxGeometry x="420" y="40" width="70" height="80" as="geometry"/>
                </mxCell>
                <mxCell id="M7JWOXm7xKOBKCvq_NVv-6" value="従業員情報" style="ellipse;shape=umlEntity;whiteSpace=wrap;html=1;fillColor=#d5e8d4;strokeColor=#82b366;" vertex="1" parent="M7JWOXm7xKOBKCvq_NVv-1">
                    <mxGeometry x="640" y="120" width="80" height="80" as="geometry"/>
                </mxCell>
                <mxCell id="M7JWOXm7xKOBKCvq_NVv-7" value="表示する" style="ellipse;shape=umlControl;whiteSpace=wrap;html=1;fillColor=#f8cecc;strokeColor=#b85450;" vertex="1" parent="M7JWOXm7xKOBKCvq_NVv-1">
                    <mxGeometry x="420" y="210" width="70" height="80" as="geometry"/>
                </mxCell>
                <mxCell id="M7JWOXm7xKOBKCvq_NVv-8" value="詳細画面" style="shape=umlBoundary;whiteSpace=wrap;html=1;fillColor=#dae8fc;strokeColor=#6c8ebf;" vertex="1" parent="M7JWOXm7xKOBKCvq_NVv-1">
                    <mxGeometry x="120" y="280" width="100" height="80" as="geometry"/>
                </mxCell>
                <mxCell id="M7JWOXm7xKOBKCvq_NVv-9" value="" style="endArrow=classic;html=1;rounded=0;exitX=1;exitY=0.5;exitDx=0;exitDy=0;exitPerimeter=0;entryX=-0.019;entryY=0.489;entryDx=0;entryDy=0;entryPerimeter=0;" edge="1" parent="M7JWOXm7xKOBKCvq_NVv-1" source="M7JWOXm7xKOBKCvq_NVv-3" target="M7JWOXm7xKOBKCvq_NVv-5">
                    <mxGeometry width="50" height="50" relative="1" as="geometry">
                        <mxPoint x="240" y="80" as="sourcePoint"/>
                        <mxPoint x="400" y="80" as="targetPoint"/>
                    </mxGeometry>
                </mxCell>
                <mxCell id="M7JWOXm7xKOBKCvq_NVv-10" value="「従業員情報（マスタ）」&lt;br&gt;を押下" style="text;html=1;strokeColor=none;fillColor=none;align=center;verticalAlign=middle;whiteSpace=wrap;rounded=0;" vertex="1" parent="M7JWOXm7xKOBKCvq_NVv-1">
                    <mxGeometry x="230" y="40" width="160" height="30" as="geometry"/>
                </mxCell>
                <mxCell id="M7JWOXm7xKOBKCvq_NVv-11" value="" style="endArrow=classic;html=1;rounded=0;" edge="1" parent="M7JWOXm7xKOBKCvq_NVv-1">
                    <mxGeometry width="50" height="50" relative="1" as="geometry">
                        <mxPoint x="410" y="90" as="sourcePoint"/>
                        <mxPoint x="240" y="200" as="targetPoint"/>
                    </mxGeometry>
                </mxCell>
                <mxCell id="M7JWOXm7xKOBKCvq_NVv-12" value="" style="endArrow=classic;html=1;rounded=0;" edge="1" parent="M7JWOXm7xKOBKCvq_NVv-1">
                    <mxGeometry width="50" height="50" relative="1" as="geometry">
                        <mxPoint x="240" y="210" as="sourcePoint"/>
                        <mxPoint x="410" y="260" as="targetPoint"/>
                    </mxGeometry>
                </mxCell>
                <mxCell id="M7JWOXm7xKOBKCvq_NVv-13" value="" style="endArrow=classic;html=1;rounded=0;startArrow=classic;startFill=1;" edge="1" parent="M7JWOXm7xKOBKCvq_NVv-1">
                    <mxGeometry width="50" height="50" relative="1" as="geometry">
                        <mxPoint x="400" y="270" as="sourcePoint"/>
                        <mxPoint x="240" y="320" as="targetPoint"/>
                    </mxGeometry>
                </mxCell>
                <mxCell id="M7JWOXm7xKOBKCvq_NVv-14" value="" style="endArrow=classic;html=1;rounded=0;startArrow=classic;startFill=1;" edge="1" parent="M7JWOXm7xKOBKCvq_NVv-1">
                    <mxGeometry width="50" height="50" relative="1" as="geometry">
                        <mxPoint x="500" y="80" as="sourcePoint"/>
                        <mxPoint x="620" y="159.9999999999999" as="targetPoint"/>
                    </mxGeometry>
                </mxCell>
                <mxCell id="M7JWOXm7xKOBKCvq_NVv-15" value="編集画面" style="shape=umlBoundary;whiteSpace=wrap;html=1;fillColor=#dae8fc;strokeColor=#6c8ebf;" vertex="1" parent="M7JWOXm7xKOBKCvq_NVv-1">
                    <mxGeometry x="120" y="400" width="100" height="80" as="geometry"/>
                </mxCell>
                <mxCell id="M7JWOXm7xKOBKCvq_NVv-16" value="" style="endArrow=classic;html=1;rounded=0;" edge="1" parent="M7JWOXm7xKOBKCvq_NVv-1">
                    <mxGeometry width="50" height="50" relative="1" as="geometry">
                        <mxPoint x="410" y="280" as="sourcePoint"/>
                        <mxPoint x="240" y="430" as="targetPoint"/>
                    </mxGeometry>
                </mxCell>
                <mxCell id="M7JWOXm7xKOBKCvq_NVv-17" value="入力データ検証" style="ellipse;shape=umlControl;whiteSpace=wrap;html=1;fillColor=#f8cecc;strokeColor=#b85450;" vertex="1" parent="M7JWOXm7xKOBKCvq_NVv-1">
                    <mxGeometry x="420" y="400" width="70" height="80" as="geometry"/>
                </mxCell>
                <mxCell id="M7JWOXm7xKOBKCvq_NVv-18" value="" style="endArrow=classic;html=1;rounded=0;startArrow=classic;startFill=1;" edge="1" parent="M7JWOXm7xKOBKCvq_NVv-1">
                    <mxGeometry width="50" height="50" relative="1" as="geometry">
                        <mxPoint x="240" y="440" as="sourcePoint"/>
                        <mxPoint x="410" y="440" as="targetPoint"/>
                    </mxGeometry>
                </mxCell>
                <mxCell id="M7JWOXm7xKOBKCvq_NVv-19" value="更新する" style="ellipse;shape=umlControl;whiteSpace=wrap;html=1;fillColor=#f8cecc;strokeColor=#b85450;" vertex="1" parent="M7JWOXm7xKOBKCvq_NVv-1">
                    <mxGeometry x="520" y="520" width="70" height="80" as="geometry"/>
                </mxCell>
                <mxCell id="M7JWOXm7xKOBKCvq_NVv-20" value="" style="endArrow=classic;html=1;rounded=0;" edge="1" parent="M7JWOXm7xKOBKCvq_NVv-1" target="M7JWOXm7xKOBKCvq_NVv-19">
                    <mxGeometry width="50" height="50" relative="1" as="geometry">
                        <mxPoint x="490" y="490" as="sourcePoint"/>
                        <mxPoint x="250" y="440" as="targetPoint"/>
                    </mxGeometry>
                </mxCell>
                <mxCell id="M7JWOXm7xKOBKCvq_NVv-21" value="" style="endArrow=classic;html=1;rounded=0;" edge="1" parent="M7JWOXm7xKOBKCvq_NVv-1">
                    <mxGeometry width="50" height="50" relative="1" as="geometry">
                        <mxPoint x="600" y="520" as="sourcePoint"/>
                        <mxPoint x="680" y="210" as="targetPoint"/>
                    </mxGeometry>
                </mxCell>
                <mxCell id="M7JWOXm7xKOBKCvq_NVv-22" value="" style="endArrow=classic;html=1;rounded=0;" edge="1" parent="M7JWOXm7xKOBKCvq_NVv-1">
                    <mxGeometry width="50" height="50" relative="1" as="geometry">
                        <mxPoint x="-30" y="200" as="sourcePoint"/>
                        <mxPoint x="110" y="200" as="targetPoint"/>
                    </mxGeometry>
                </mxCell>
                <mxCell id="M7JWOXm7xKOBKCvq_NVv-23" value="" style="endArrow=classic;html=1;rounded=0;" edge="1" parent="M7JWOXm7xKOBKCvq_NVv-1">
                    <mxGeometry width="50" height="50" relative="1" as="geometry">
                        <mxPoint x="-30" y="200" as="sourcePoint"/>
                        <mxPoint x="110" y="80" as="targetPoint"/>
                    </mxGeometry>
                </mxCell>
                <mxCell id="M7JWOXm7xKOBKCvq_NVv-24" value="" style="endArrow=classic;html=1;rounded=0;" edge="1" parent="M7JWOXm7xKOBKCvq_NVv-1">
                    <mxGeometry width="50" height="50" relative="1" as="geometry">
                        <mxPoint x="-30" y="200" as="sourcePoint"/>
                        <mxPoint x="110" y="320" as="targetPoint"/>
                    </mxGeometry>
                </mxCell>
                <mxCell id="M7JWOXm7xKOBKCvq_NVv-25" value="" style="endArrow=classic;html=1;rounded=0;" edge="1" parent="M7JWOXm7xKOBKCvq_NVv-1">
                    <mxGeometry width="50" height="50" relative="1" as="geometry">
                        <mxPoint x="-30" y="200" as="sourcePoint"/>
                        <mxPoint x="110" y="440" as="targetPoint"/>
                    </mxGeometry>
                </mxCell>
            </root>
        </mxGraphModel>
    </diagram>
    <diagram id="Nx75vGViFoE-MNcZE8Wq" name="*従業員情報管理_削除">
        <mxGraphModel dx="1937" dy="614" grid="1" gridSize="10" guides="1" tooltips="1" connect="1" arrows="1" fold="1" page="1" pageScale="1" pageWidth="827" pageHeight="1169" math="0" shadow="0">
            <root>
                <mxCell id="oS5wxg1Q6HXezZ8grsT4-0"/>
                <mxCell id="oS5wxg1Q6HXezZ8grsT4-1" parent="oS5wxg1Q6HXezZ8grsT4-0"/>
                <mxCell id="oS5wxg1Q6HXezZ8grsT4-2" value="正規社員" style="shape=umlActor;verticalLabelPosition=bottom;verticalAlign=top;html=1;" vertex="1" parent="oS5wxg1Q6HXezZ8grsT4-1">
                    <mxGeometry x="-70" y="160" width="30" height="60" as="geometry"/>
                </mxCell>
                <mxCell id="oS5wxg1Q6HXezZ8grsT4-3" value="ログイン済&lt;br&gt;ホーム画面" style="shape=umlBoundary;whiteSpace=wrap;html=1;fillColor=#dae8fc;strokeColor=#6c8ebf;" vertex="1" parent="oS5wxg1Q6HXezZ8grsT4-1">
                    <mxGeometry x="120" y="40" width="100" height="80" as="geometry"/>
                </mxCell>
                <mxCell id="oS5wxg1Q6HXezZ8grsT4-4" value="従業員情報&lt;br&gt;一覧画面" style="shape=umlBoundary;whiteSpace=wrap;html=1;fillColor=#dae8fc;strokeColor=#6c8ebf;" vertex="1" parent="oS5wxg1Q6HXezZ8grsT4-1">
                    <mxGeometry x="120" y="160" width="100" height="80" as="geometry"/>
                </mxCell>
                <mxCell id="oS5wxg1Q6HXezZ8grsT4-5" value="従業員情報&lt;br&gt;を取得する" style="ellipse;shape=umlControl;whiteSpace=wrap;html=1;fillColor=#f8cecc;strokeColor=#b85450;" vertex="1" parent="oS5wxg1Q6HXezZ8grsT4-1">
                    <mxGeometry x="420" y="40" width="70" height="80" as="geometry"/>
                </mxCell>
                <mxCell id="oS5wxg1Q6HXezZ8grsT4-6" value="従業員情報" style="ellipse;shape=umlEntity;whiteSpace=wrap;html=1;fillColor=#d5e8d4;strokeColor=#82b366;" vertex="1" parent="oS5wxg1Q6HXezZ8grsT4-1">
                    <mxGeometry x="640" y="120" width="80" height="80" as="geometry"/>
                </mxCell>
                <mxCell id="oS5wxg1Q6HXezZ8grsT4-7" value="表示する" style="ellipse;shape=umlControl;whiteSpace=wrap;html=1;fillColor=#f8cecc;strokeColor=#b85450;" vertex="1" parent="oS5wxg1Q6HXezZ8grsT4-1">
                    <mxGeometry x="420" y="210" width="70" height="80" as="geometry"/>
                </mxCell>
                <mxCell id="oS5wxg1Q6HXezZ8grsT4-8" value="詳細画面" style="shape=umlBoundary;whiteSpace=wrap;html=1;fillColor=#dae8fc;strokeColor=#6c8ebf;" vertex="1" parent="oS5wxg1Q6HXezZ8grsT4-1">
                    <mxGeometry x="120" y="280" width="100" height="80" as="geometry"/>
                </mxCell>
                <mxCell id="oS5wxg1Q6HXezZ8grsT4-9" value="" style="endArrow=classic;html=1;rounded=0;exitX=1;exitY=0.5;exitDx=0;exitDy=0;exitPerimeter=0;entryX=-0.019;entryY=0.489;entryDx=0;entryDy=0;entryPerimeter=0;" edge="1" parent="oS5wxg1Q6HXezZ8grsT4-1" source="oS5wxg1Q6HXezZ8grsT4-3" target="oS5wxg1Q6HXezZ8grsT4-5">
                    <mxGeometry width="50" height="50" relative="1" as="geometry">
                        <mxPoint x="240" y="80" as="sourcePoint"/>
                        <mxPoint x="400" y="80" as="targetPoint"/>
                    </mxGeometry>
                </mxCell>
                <mxCell id="oS5wxg1Q6HXezZ8grsT4-10" value="「従業員情報マスタ」&lt;br&gt;を押下" style="text;html=1;strokeColor=none;fillColor=none;align=center;verticalAlign=middle;whiteSpace=wrap;rounded=0;" vertex="1" parent="oS5wxg1Q6HXezZ8grsT4-1">
                    <mxGeometry x="230" y="40" width="160" height="30" as="geometry"/>
                </mxCell>
                <mxCell id="oS5wxg1Q6HXezZ8grsT4-11" value="" style="endArrow=classic;html=1;rounded=0;" edge="1" parent="oS5wxg1Q6HXezZ8grsT4-1">
                    <mxGeometry width="50" height="50" relative="1" as="geometry">
                        <mxPoint x="410" y="90" as="sourcePoint"/>
                        <mxPoint x="240" y="199.9999999999999" as="targetPoint"/>
                    </mxGeometry>
                </mxCell>
                <mxCell id="oS5wxg1Q6HXezZ8grsT4-12" value="" style="endArrow=classic;html=1;rounded=0;" edge="1" parent="oS5wxg1Q6HXezZ8grsT4-1">
                    <mxGeometry width="50" height="50" relative="1" as="geometry">
                        <mxPoint x="240" y="209.9999999999999" as="sourcePoint"/>
                        <mxPoint x="410" y="259.9999999999999" as="targetPoint"/>
                    </mxGeometry>
                </mxCell>
                <mxCell id="oS5wxg1Q6HXezZ8grsT4-13" value="" style="endArrow=classic;html=1;rounded=0;startArrow=classic;startFill=1;" edge="1" parent="oS5wxg1Q6HXezZ8grsT4-1">
                    <mxGeometry width="50" height="50" relative="1" as="geometry">
                        <mxPoint x="500" y="80" as="sourcePoint"/>
                        <mxPoint x="620" y="159.9999999999999" as="targetPoint"/>
                    </mxGeometry>
                </mxCell>
                <mxCell id="oS5wxg1Q6HXezZ8grsT4-14" value="削除する" style="ellipse;shape=umlControl;whiteSpace=wrap;html=1;fillColor=#f8cecc;strokeColor=#b85450;" vertex="1" parent="oS5wxg1Q6HXezZ8grsT4-1">
                    <mxGeometry x="414" y="360" width="70" height="80" as="geometry"/>
                </mxCell>
                <mxCell id="oS5wxg1Q6HXezZ8grsT4-15" value="" style="endArrow=classic;html=1;rounded=0;" edge="1" parent="oS5wxg1Q6HXezZ8grsT4-1">
                    <mxGeometry width="50" height="50" relative="1" as="geometry">
                        <mxPoint x="490" y="400" as="sourcePoint"/>
                        <mxPoint x="680" y="209.9999999999999" as="targetPoint"/>
                    </mxGeometry>
                </mxCell>
                <mxCell id="oS5wxg1Q6HXezZ8grsT4-16" value="" style="endArrow=classic;html=1;rounded=0;" edge="1" parent="oS5wxg1Q6HXezZ8grsT4-1">
                    <mxGeometry width="50" height="50" relative="1" as="geometry">
                        <mxPoint x="400" y="269.9999999999999" as="sourcePoint"/>
                        <mxPoint x="240" y="320" as="targetPoint"/>
                    </mxGeometry>
                </mxCell>
                <mxCell id="oS5wxg1Q6HXezZ8grsT4-17" value="" style="endArrow=classic;html=1;rounded=0;" edge="1" parent="oS5wxg1Q6HXezZ8grsT4-1">
                    <mxGeometry width="50" height="50" relative="1" as="geometry">
                        <mxPoint x="240" y="330" as="sourcePoint"/>
                        <mxPoint x="400" y="400" as="targetPoint"/>
                    </mxGeometry>
                </mxCell>
                <mxCell id="oS5wxg1Q6HXezZ8grsT4-18" value="" style="endArrow=classic;html=1;rounded=0;" edge="1" parent="oS5wxg1Q6HXezZ8grsT4-1">
                    <mxGeometry width="50" height="50" relative="1" as="geometry">
                        <mxPoint x="-30" y="199.9999999999999" as="sourcePoint"/>
                        <mxPoint x="110" y="199.9999999999999" as="targetPoint"/>
                    </mxGeometry>
                </mxCell>
                <mxCell id="oS5wxg1Q6HXezZ8grsT4-19" value="" style="endArrow=classic;html=1;rounded=0;" edge="1" parent="oS5wxg1Q6HXezZ8grsT4-1">
                    <mxGeometry width="50" height="50" relative="1" as="geometry">
                        <mxPoint x="-30" y="199.9999999999999" as="sourcePoint"/>
                        <mxPoint x="110" y="80" as="targetPoint"/>
                    </mxGeometry>
                </mxCell>
                <mxCell id="oS5wxg1Q6HXezZ8grsT4-20" value="" style="endArrow=classic;html=1;rounded=0;" edge="1" parent="oS5wxg1Q6HXezZ8grsT4-1">
                    <mxGeometry width="50" height="50" relative="1" as="geometry">
                        <mxPoint x="-30" y="199.9999999999999" as="sourcePoint"/>
                        <mxPoint x="110" y="320" as="targetPoint"/>
                    </mxGeometry>
                </mxCell>
            </root>
        </mxGraphModel>
    </diagram>
    <diagram id="OSO4O63BFoZP4wHCJO6B" name="*従業員情報管理_完全削除">
        <mxGraphModel dx="1604" dy="430" grid="1" gridSize="10" guides="1" tooltips="1" connect="1" arrows="1" fold="1" page="1" pageScale="1" pageWidth="827" pageHeight="1169" math="0" shadow="0">
            <root>
                <mxCell id="2CbTUjZamSjC3_LLYE4Z-0"/>
                <mxCell id="2CbTUjZamSjC3_LLYE4Z-1" parent="2CbTUjZamSjC3_LLYE4Z-0"/>
                <mxCell id="2CbTUjZamSjC3_LLYE4Z-2" value="正規社員" style="shape=umlActor;verticalLabelPosition=bottom;verticalAlign=top;html=1;" vertex="1" parent="2CbTUjZamSjC3_LLYE4Z-1">
                    <mxGeometry x="-70" y="160" width="30" height="60" as="geometry"/>
                </mxCell>
                <mxCell id="2CbTUjZamSjC3_LLYE4Z-3" value="ログイン済&lt;br&gt;ホーム画面" style="shape=umlBoundary;whiteSpace=wrap;html=1;fillColor=#dae8fc;strokeColor=#6c8ebf;" vertex="1" parent="2CbTUjZamSjC3_LLYE4Z-1">
                    <mxGeometry x="120" y="40" width="100" height="80" as="geometry"/>
                </mxCell>
                <mxCell id="2CbTUjZamSjC3_LLYE4Z-4" value="従業員情報&lt;br&gt;一覧画面" style="shape=umlBoundary;whiteSpace=wrap;html=1;fillColor=#dae8fc;strokeColor=#6c8ebf;" vertex="1" parent="2CbTUjZamSjC3_LLYE4Z-1">
                    <mxGeometry x="120" y="160" width="100" height="80" as="geometry"/>
                </mxCell>
                <mxCell id="2CbTUjZamSjC3_LLYE4Z-5" value="従業員情報&lt;br&gt;を取得する" style="ellipse;shape=umlControl;whiteSpace=wrap;html=1;fillColor=#f8cecc;strokeColor=#b85450;" vertex="1" parent="2CbTUjZamSjC3_LLYE4Z-1">
                    <mxGeometry x="420" y="40" width="70" height="80" as="geometry"/>
                </mxCell>
                <mxCell id="2CbTUjZamSjC3_LLYE4Z-6" value="従業員情報" style="ellipse;shape=umlEntity;whiteSpace=wrap;html=1;fillColor=#d5e8d4;strokeColor=#82b366;" vertex="1" parent="2CbTUjZamSjC3_LLYE4Z-1">
                    <mxGeometry x="640" y="120" width="80" height="80" as="geometry"/>
                </mxCell>
                <mxCell id="2CbTUjZamSjC3_LLYE4Z-7" value="表示する" style="ellipse;shape=umlControl;whiteSpace=wrap;html=1;fillColor=#f8cecc;strokeColor=#b85450;" vertex="1" parent="2CbTUjZamSjC3_LLYE4Z-1">
                    <mxGeometry x="420" y="210" width="70" height="80" as="geometry"/>
                </mxCell>
                <mxCell id="2CbTUjZamSjC3_LLYE4Z-8" value="詳細画面" style="shape=umlBoundary;whiteSpace=wrap;html=1;fillColor=#dae8fc;strokeColor=#6c8ebf;" vertex="1" parent="2CbTUjZamSjC3_LLYE4Z-1">
                    <mxGeometry x="120" y="280" width="100" height="80" as="geometry"/>
                </mxCell>
                <mxCell id="2CbTUjZamSjC3_LLYE4Z-9" value="" style="endArrow=classic;html=1;rounded=0;exitX=1;exitY=0.5;exitDx=0;exitDy=0;exitPerimeter=0;entryX=-0.019;entryY=0.489;entryDx=0;entryDy=0;entryPerimeter=0;" edge="1" parent="2CbTUjZamSjC3_LLYE4Z-1" source="2CbTUjZamSjC3_LLYE4Z-3" target="2CbTUjZamSjC3_LLYE4Z-5">
                    <mxGeometry width="50" height="50" relative="1" as="geometry">
                        <mxPoint x="240" y="80" as="sourcePoint"/>
                        <mxPoint x="400" y="80" as="targetPoint"/>
                    </mxGeometry>
                </mxCell>
                <mxCell id="2CbTUjZamSjC3_LLYE4Z-10" value="「従業員情報マスタ」&lt;br&gt;を押下" style="text;html=1;strokeColor=none;fillColor=none;align=center;verticalAlign=middle;whiteSpace=wrap;rounded=0;" vertex="1" parent="2CbTUjZamSjC3_LLYE4Z-1">
                    <mxGeometry x="230" y="40" width="160" height="30" as="geometry"/>
                </mxCell>
                <mxCell id="2CbTUjZamSjC3_LLYE4Z-11" value="" style="endArrow=classic;html=1;rounded=0;" edge="1" parent="2CbTUjZamSjC3_LLYE4Z-1">
                    <mxGeometry width="50" height="50" relative="1" as="geometry">
                        <mxPoint x="410" y="90" as="sourcePoint"/>
                        <mxPoint x="240" y="199.9999999999999" as="targetPoint"/>
                    </mxGeometry>
                </mxCell>
                <mxCell id="2CbTUjZamSjC3_LLYE4Z-12" value="" style="endArrow=classic;html=1;rounded=0;" edge="1" parent="2CbTUjZamSjC3_LLYE4Z-1">
                    <mxGeometry width="50" height="50" relative="1" as="geometry">
                        <mxPoint x="240" y="209.9999999999999" as="sourcePoint"/>
                        <mxPoint x="410" y="259.9999999999999" as="targetPoint"/>
                    </mxGeometry>
                </mxCell>
                <mxCell id="2CbTUjZamSjC3_LLYE4Z-13" value="" style="endArrow=classic;html=1;rounded=0;startArrow=classic;startFill=1;" edge="1" parent="2CbTUjZamSjC3_LLYE4Z-1">
                    <mxGeometry width="50" height="50" relative="1" as="geometry">
                        <mxPoint x="500" y="80" as="sourcePoint"/>
                        <mxPoint x="620" y="159.9999999999999" as="targetPoint"/>
                    </mxGeometry>
                </mxCell>
                <mxCell id="2CbTUjZamSjC3_LLYE4Z-14" value="完全削除&lt;br&gt;する" style="ellipse;shape=umlControl;whiteSpace=wrap;html=1;fillColor=#f8cecc;strokeColor=#b85450;" vertex="1" parent="2CbTUjZamSjC3_LLYE4Z-1">
                    <mxGeometry x="414" y="360" width="70" height="80" as="geometry"/>
                </mxCell>
                <mxCell id="2CbTUjZamSjC3_LLYE4Z-15" value="" style="endArrow=classic;html=1;rounded=0;" edge="1" parent="2CbTUjZamSjC3_LLYE4Z-1">
                    <mxGeometry width="50" height="50" relative="1" as="geometry">
                        <mxPoint x="490" y="400" as="sourcePoint"/>
                        <mxPoint x="680" y="209.9999999999999" as="targetPoint"/>
                    </mxGeometry>
                </mxCell>
                <mxCell id="2CbTUjZamSjC3_LLYE4Z-16" value="" style="endArrow=classic;html=1;rounded=0;" edge="1" parent="2CbTUjZamSjC3_LLYE4Z-1">
                    <mxGeometry width="50" height="50" relative="1" as="geometry">
                        <mxPoint x="400" y="269.9999999999999" as="sourcePoint"/>
                        <mxPoint x="240" y="320" as="targetPoint"/>
                    </mxGeometry>
                </mxCell>
                <mxCell id="2CbTUjZamSjC3_LLYE4Z-17" value="" style="endArrow=classic;html=1;rounded=0;" edge="1" parent="2CbTUjZamSjC3_LLYE4Z-1">
                    <mxGeometry width="50" height="50" relative="1" as="geometry">
                        <mxPoint x="240" y="330" as="sourcePoint"/>
                        <mxPoint x="400" y="400" as="targetPoint"/>
                    </mxGeometry>
                </mxCell>
                <mxCell id="2CbTUjZamSjC3_LLYE4Z-18" value="" style="endArrow=classic;html=1;rounded=0;" edge="1" parent="2CbTUjZamSjC3_LLYE4Z-1">
                    <mxGeometry width="50" height="50" relative="1" as="geometry">
                        <mxPoint x="-30" y="199.9999999999999" as="sourcePoint"/>
                        <mxPoint x="110" y="199.9999999999999" as="targetPoint"/>
                    </mxGeometry>
                </mxCell>
                <mxCell id="2CbTUjZamSjC3_LLYE4Z-19" value="" style="endArrow=classic;html=1;rounded=0;" edge="1" parent="2CbTUjZamSjC3_LLYE4Z-1">
                    <mxGeometry width="50" height="50" relative="1" as="geometry">
                        <mxPoint x="-30" y="199.9999999999999" as="sourcePoint"/>
                        <mxPoint x="110" y="80" as="targetPoint"/>
                    </mxGeometry>
                </mxCell>
                <mxCell id="2CbTUjZamSjC3_LLYE4Z-20" value="" style="endArrow=classic;html=1;rounded=0;" edge="1" parent="2CbTUjZamSjC3_LLYE4Z-1">
                    <mxGeometry width="50" height="50" relative="1" as="geometry">
                        <mxPoint x="-30" y="199.9999999999999" as="sourcePoint"/>
                        <mxPoint x="110" y="320" as="targetPoint"/>
                    </mxGeometry>
                </mxCell>
            </root>
        </mxGraphModel>
    </diagram>
</mxfile>